<svg width="110" height="41" viewBox="0 0 110 41" fill="none" xmlns="http://www.w3.org/2000/svg">
<g clip-path="url(#clip0_14:28)">
<path d="M22.986 17.9539V0.111586H31.7442C33.2346 0.0678543 34.6889 0.575501 35.8286 1.53738C36.3428 1.97089 36.7529 2.51456 37.0285 3.12814C37.3042 3.74172 37.4383 4.40947 37.421 5.08195C37.4316 5.75343 37.2944 6.41903 37.0192 7.03157C36.744 7.64412 36.3376 8.18862 35.8286 8.62652C36.5376 9.05606 37.1249 9.65999 37.5347 10.3808C37.9444 11.1016 38.1629 11.9154 38.1694 12.7446C38.1828 13.4494 38.0365 14.148 37.7414 14.7881C37.4463 15.4282 37.0101 15.9932 36.4656 16.4405C35.29 17.444 33.7823 17.9724 32.2378 17.9221L22.986 17.9539ZM27.0705 3.83139V7.06532H31.7043C32.0908 7.08418 32.47 6.95575 32.7655 6.70593C33.061 6.45612 33.2508 6.1035 33.2967 5.71918C33.3125 5.63494 33.3125 5.54852 33.2967 5.46429C33.302 5.25175 33.2648 5.04031 33.1871 4.84241C33.1095 4.64451 32.993 4.46416 32.8446 4.31198C32.6962 4.15981 32.5189 4.03889 32.3231 3.95635C32.1272 3.87381 31.9168 3.83133 31.7043 3.83139H27.0705ZM27.0705 10.6099V14.2261H32.2219C32.7012 14.2261 33.1609 14.0356 33.4999 13.6966C33.8388 13.3575 34.0292 12.8976 34.0292 12.418C34.0292 11.9385 33.8388 11.4786 33.4999 11.1395C33.1609 10.8004 32.7012 10.6099 32.2219 10.6099H27.0705Z" fill="#0D1821"/>
<path d="M40.7733 4.69955H44.587V12.187C44.5681 12.5182 44.6169 12.8499 44.7306 13.1616C44.8443 13.4733 45.0204 13.7585 45.2481 13.9998C45.4758 14.241 45.7504 14.4332 46.055 14.5645C46.3596 14.6959 46.6877 14.7636 47.0194 14.7636C47.3511 14.7636 47.6793 14.6959 47.9838 14.5645C48.2884 14.4332 48.563 14.241 48.7907 13.9998C49.0184 13.7585 49.1945 13.4733 49.3082 13.1616C49.4219 12.8499 49.4707 12.5182 49.4518 12.187V4.69955H53.2735V17.9539H49.4518V16.5998C49.0315 17.1537 48.4847 17.5989 47.8573 17.8982C47.2298 18.1976 46.5398 18.3423 45.845 18.3203C45.1681 18.3319 44.4958 18.2059 43.869 17.9499C43.2421 17.6938 42.6738 17.3131 42.1984 16.8307C41.7227 16.3574 41.3487 15.7917 41.0995 15.1685C40.8503 14.5452 40.7311 13.8775 40.7494 13.2065L40.7733 4.69955Z" fill="#0D1821"/>
<path d="M56.291 17.9539V4.69957H60.1127V5.89437C60.5356 5.39878 61.064 5.00419 61.6592 4.73956C62.2544 4.47492 62.9012 4.34695 63.5523 4.36503C64.3375 4.33169 65.1184 4.49838 65.8217 4.84946C66.5249 5.20055 67.1276 5.72453 67.5731 6.37229C67.9947 5.70825 68.5861 5.16905 69.2861 4.81053C69.986 4.45201 70.769 4.28719 71.554 4.33316C72.2258 4.31856 72.8938 4.43701 73.5197 4.68171C74.1455 4.9264 74.7168 5.29251 75.2006 5.75896C75.6822 6.20259 76.0636 6.74409 76.319 7.34717C76.5744 7.95024 76.698 8.60097 76.6815 9.25574V17.9539H72.8518V10.3072C72.8779 9.99843 72.8397 9.68764 72.7395 9.39446C72.6393 9.10129 72.4794 8.83211 72.2698 8.60398C72.0603 8.37585 71.8056 8.19373 71.5221 8.06915C71.2385 7.94457 70.9322 7.88024 70.6225 7.88024C70.3128 7.88024 70.0065 7.94457 69.7229 8.06915C69.4393 8.19373 69.1847 8.37585 68.9752 8.60398C68.7656 8.83211 68.6057 9.10129 68.5055 9.39446C68.4053 9.68764 68.367 9.99843 68.3932 10.3072V17.9539H64.5714V10.3072C64.5975 9.99843 64.5593 9.68764 64.4591 9.39446C64.3589 9.10129 64.199 8.83211 63.9894 8.60398C63.7799 8.37585 63.5252 8.19373 63.2417 8.06915C62.9581 7.94457 62.6518 7.88024 62.3421 7.88024C62.0324 7.88024 61.7261 7.94457 61.4425 8.06915C61.1589 8.19373 60.9043 8.37585 60.6947 8.60398C60.4852 8.83211 60.3253 9.10129 60.2251 9.39446C60.1249 9.68764 60.0866 9.99843 60.1127 10.3072V17.9539H56.291Z" fill="#0D1821"/>
<path d="M79.6749 23.6889V4.69955H83.4967V5.57574C84.7056 4.6669 86.2111 4.24453 87.7161 4.39199C89.2211 4.53946 90.6161 5.24605 91.6258 6.37227C92.8395 7.73803 93.486 9.51594 93.4331 11.3426C93.4772 13.1679 92.8318 14.9427 91.6258 16.313C91.0707 16.955 90.3816 17.4675 89.6072 17.8143C88.8327 18.1611 87.9916 18.3338 87.1432 18.3203C85.8264 18.3291 84.5438 17.9005 83.4967 17.1016V23.7287L79.6749 23.6889ZM83.5524 11.3506C83.5332 11.7548 83.5947 12.1588 83.7335 12.5389C83.8722 12.919 84.0854 13.2676 84.3605 13.5643C84.6355 13.861 84.967 14.0998 85.3354 14.2668C85.7039 14.4338 86.1019 14.5255 86.5063 14.5367C86.8964 14.5415 87.2829 14.4613 87.639 14.3017C87.995 14.1422 88.3122 13.9071 88.5684 13.6128C88.8561 13.3172 89.0812 12.9667 89.2304 12.5821C89.3795 12.1975 89.4495 11.7868 89.4363 11.3745C89.4731 10.9657 89.4244 10.5537 89.2933 10.1648C89.1622 9.77584 88.9516 9.41849 88.6748 9.11549C88.3981 8.8125 88.0612 8.57052 87.6858 8.40496C87.3104 8.2394 86.9046 8.15389 86.4943 8.15389C86.084 8.15389 85.6783 8.2394 85.3028 8.40496C84.9274 8.57052 84.5906 8.8125 84.3138 9.11549C84.037 9.41849 83.8264 9.77584 83.6953 10.1648C83.5642 10.5537 83.5155 10.9657 83.5524 11.3745V11.3506Z" fill="#0D1821"/>
<path d="M97.3824 6.37223C97.9387 5.73267 98.6283 5.22292 99.4028 4.87886C100.177 4.53481 101.018 4.36483 101.865 4.38089C103.187 4.36047 104.478 4.78082 105.535 5.57569V4.69951H109.333V17.9538H105.535V17.0298C104.499 17.8743 103.201 18.3306 101.865 18.3202C101.019 18.3356 100.179 18.1662 99.4048 17.8236C98.6306 17.4811 97.9405 16.9737 97.3824 16.3369C96.1837 14.9638 95.5468 13.1888 95.5989 11.3665C95.5334 9.53486 96.1716 7.74769 97.3824 6.37223ZM99.5799 11.3107C99.5501 11.717 99.6043 12.1252 99.7392 12.5096C99.8742 12.894 100.087 13.2464 100.364 13.5449C100.641 13.8433 100.977 14.0814 101.35 14.2441C101.724 14.4069 102.127 14.491 102.534 14.491C102.941 14.491 103.344 14.4069 103.717 14.2441C104.091 14.0814 104.426 13.8433 104.704 13.5449C104.981 13.2464 105.193 12.894 105.328 12.5096C105.463 12.1252 105.518 11.717 105.488 11.3107C105.5 10.8986 105.429 10.4883 105.28 10.1039C105.131 9.71945 104.906 9.36878 104.62 9.07247C104.357 8.781 104.035 8.54866 103.675 8.39077C103.315 8.23288 102.926 8.15302 102.534 8.15646C102.133 8.16674 101.739 8.25628 101.373 8.41991C101.007 8.58353 100.678 8.818 100.403 9.10979C100.128 9.40157 99.9143 9.74489 99.7731 10.1199C99.6318 10.4949 99.5661 10.8943 99.5799 11.2948V11.3107Z" fill="#0D1821"/>
<path d="M0 2.6684H14.9684V14.6642C14.9684 15.4543 14.6547 16.212 14.0963 16.7707C13.5378 17.3294 12.7804 17.6432 11.9907 17.6432H2.97776C2.18801 17.6432 1.43061 17.3294 0.872167 16.7707C0.313728 16.212 0 15.4543 0 14.6642L0 2.6684Z" fill="#009444"/>
<path d="M0 2.66839L1.65608 0.629261C1.80562 0.437187 1.99619 0.280996 2.21385 0.172118C2.43151 0.0632408 2.67076 0.0044333 2.91407 0L12.1021 0C12.3452 0.00555059 12.5841 0.0648486 12.8016 0.173642C13.0191 0.282435 13.2098 0.438027 13.3601 0.629261L14.9422 2.66839H0Z" fill="#39B54A"/>
<path fill-rule="evenodd" clip-rule="evenodd" d="M12.5351 8.51767C11.8923 9.20041 9.63417 11.4553 6.51852 10.9311L6.49862 10.9278L6.47892 10.9234C4.8931 10.5765 3.46604 9.72049 2.41455 8.48803L3.66821 7.44282C4.48489 8.40006 5.5892 9.06379 6.8133 9.33613C8.99088 9.69125 10.6895 8.09841 11.3346 7.41318L12.5351 8.51767Z" fill="white"/>
</g>
<path d="M6.2976 30.0677C6.72522 30.2038 7.07508 30.4662 7.3472 30.8549C7.61932 31.2437 7.75538 31.6859 7.75538 32.1815C7.75538 32.9882 7.49298 33.6101 6.96818 34.0475C6.4531 34.4751 5.72421 34.6889 4.78151 34.6889H0.670578V25.7381H4.50453C5.44723 25.7381 6.18098 25.9471 6.70578 26.365C7.23058 26.7829 7.49298 27.3854 7.49298 28.1726C7.49298 28.6391 7.37636 29.0424 7.14311 29.3826C6.91959 29.713 6.63775 29.9414 6.2976 30.0677ZM2.90098 29.2805H4.24213C4.94187 29.2805 5.29173 29.0084 5.29173 28.4642C5.29173 27.9297 4.94187 27.6624 4.24213 27.6624H2.90098V29.2805ZM2.90098 31.0299V32.7646H4.47538C4.79609 32.7646 5.04391 32.6869 5.21884 32.5314C5.4035 32.3759 5.49582 32.1669 5.49582 31.9045C5.49582 31.6324 5.4035 31.4186 5.21884 31.2631C5.04391 31.1076 4.79609 31.0299 4.47538 31.0299H2.90098ZM10.5345 34.6889V25.7381H12.8815V32.6626H16.8904V34.6889H10.5345ZM22.6005 25.7381H24.9912L28.4024 34.6889H26.0262L25.3848 32.9541H22.134L21.5071 34.6889H19.1893L22.6005 25.7381ZM23.7667 28.5079L22.8483 31.0299H24.6851L23.7667 28.5079ZM31.2932 33.5373C30.4866 32.6723 30.0833 31.5644 30.0833 30.2135C30.0833 28.8627 30.4866 27.7547 31.2932 26.8898C32.0999 26.0248 33.13 25.5924 34.3837 25.5924C35.4625 25.5924 36.3323 25.8791 36.9932 26.4525C37.6637 27.0259 38.0816 27.7888 38.2468 28.7412H35.9144C35.652 28.0123 35.1418 27.6478 34.3837 27.6478C33.7812 27.6478 33.305 27.8859 32.9551 28.3621C32.615 28.8384 32.4449 29.4555 32.4449 30.2135C32.4449 30.9619 32.615 31.579 32.9551 32.0649C33.305 32.5411 33.7812 32.7792 34.3837 32.7792C35.1515 32.7792 35.6617 32.4099 35.9144 31.6713H38.2468C38.0816 32.6237 37.6637 33.3915 36.9932 33.9746C36.3323 34.548 35.4625 34.8347 34.3837 34.8347C33.13 34.8347 32.0999 34.4022 31.2932 33.5373ZM43.3132 25.7381V29.4117L46.1996 25.7381H48.9402L45.806 29.6741L49.0714 34.6889H46.3162L44.0567 31.2485L43.3132 32.1961V34.6889H40.9662V25.7381H43.3132ZM58.5702 34.6889H56.2523V25.7381H62.5499V27.7645H58.5702V29.5429H62.2292V31.5255H58.5702V34.6889ZM68.5387 31.7296H67.7223V34.6889H65.4045V25.7381H69.4279C70.4095 25.7381 71.1967 26.0054 71.7895 26.5399C72.3824 27.0744 72.6788 27.8228 72.6788 28.7849C72.6788 29.4458 72.5184 30.0094 72.1977 30.4759C71.8867 30.9424 71.4542 31.2777 70.9003 31.4818L72.9995 34.6889H70.4046L68.5387 31.7296ZM67.7223 27.7061V29.8637H69.1801C69.9867 29.8637 70.3901 29.5041 70.3901 28.7849C70.3901 28.0657 69.9867 27.7061 69.1801 27.7061H67.7223ZM77.8716 25.7381V34.6889H75.5246V25.7381H77.8716ZM83.2644 32.6626H84.2265C84.9651 32.6626 85.5337 32.4439 85.9321 32.0066C86.3403 31.5693 86.5444 30.9716 86.5444 30.2135C86.5444 29.4458 86.3403 28.8432 85.9321 28.4059C85.5337 27.9685 84.9651 27.7499 84.2265 27.7499H83.2644V32.6626ZM80.9611 34.6889V25.7381H84.3431C85.7426 25.7381 86.8457 26.1415 87.6523 26.9481C88.4589 27.7547 88.8623 28.8432 88.8623 30.2135C88.8623 31.5838 88.4589 32.6723 87.6523 33.4789C86.8457 34.2856 85.7426 34.6889 84.3431 34.6889H80.9611ZM93.9382 25.7381H96.3289L99.7401 34.6889H97.364L96.7225 32.9541H93.4717L92.8448 34.6889H90.527L93.9382 25.7381ZM95.1044 28.5079L94.186 31.0299H96.0228L95.1044 28.5079ZM104.964 29.2368L106.845 25.7381H109.308L106.072 31.5109V34.6889H103.725V31.5109L100.547 25.7381H103.084L104.964 29.2368Z" fill="#0D1821"/>
<defs>
<clipPath id="clip0_14:28">
<rect width="109.333" height="23.6889" fill="white"/>
</clipPath>
</defs>
</svg>
